<?xml version="1.0" encoding="UTF-8"?>
<svg width="747px" height="380px" viewBox="0 0 747 380" version="1.1" xmlns="http://www.w3.org/2000/svg" xmlns:xlink="http://www.w3.org/1999/xlink">
    <!-- Generator: Sketch 40 (33762) - http://www.bohemiancoding.com/sketch -->
    <title>img-logo</title>
    <desc>Created with Sketch.</desc>
    <defs>
        <polygon id="path-1" points="0 494.90125 884.82375 494.90125 884.82375 0 0 0"></polygon>
    </defs>
    <g id="Page-1" stroke="none" stroke-width="1" fill="none" fill-rule="evenodd">
        <g id="img-logo" transform="translate(-63.000000, -40.000000)">
            <g id="g10" transform="translate(442.500000, 248.401250) scale(1, -1) translate(-442.500000, -248.401250) translate(0.000000, 0.901250)">
                <g id="g12">
                    <g id="g14-Clipped">
                        <mask id="mask-2" fill="white">
                            <use xlink:href="#path-1"></use>
                        </mask>
                        <g id="path18"></g>
                        <g id="g14" mask="url(#mask-2)">
                            <g transform="translate(62.500000, 75.000000)">
                                <g id="g20" stroke-width="1" fill="none" transform="translate(298.692625, 23.259250)">
                                    <path d="M2.5,2.5 L6.485,2.5 C7.45375,2.5 8.20625,2.69875 8.7375,3.09875 C9.26875,3.49625 9.535,4.0125 9.535,4.65 C9.535,5.095 9.41125,5.51125 9.17125,5.895 C8.93375,6.27625 8.595,6.57125 8.1625,6.7775 C7.725,6.98625 7.075,7.0925 6.215,7.0925 L2.5,7.0925 L2.5,2.5 L2.5,2.5 Z M2.5,8.2825 L5.7325,8.2825 C7.075,8.2825 7.97,8.5 8.4225,8.9325 C8.87125,9.3625 9.09625,9.87 9.09625,10.4525 C9.09625,11.025 8.85625,11.49 8.37375,11.8475 C7.8875,12.20375 7.16875,12.3775 6.215,12.3775 L2.5,12.3775 L2.5,8.2825 L2.5,8.2825 Z M0.70375,1.125 L0.70375,13.655 L6.58375,13.655 C8.06375,13.655 9.16125,13.35 9.87375,12.73875 C10.5925,12.1275 10.94625,11.41625 10.94625,10.60875 C10.94625,9.19125 10.07125,8.24875 8.31375,7.78625 C9.3575,7.5575 10.135,7.155 10.6425,6.57375 C11.15375,5.99 11.40375,5.33125 11.40375,4.59625 C11.40375,3.61 11.01125,2.78625 10.22375,2.12125 C9.43625,1.4575 8.22125,1.125 6.58375,1.125 L0.70375,1.125 L0.70375,1.125 Z" id="path22" fill="#000000"></path>
                                </g>
                                <g id="g24" stroke-width="1" fill="none" transform="translate(298.815875, 24.148000)">
                                    <path d="M2.5,7.5 L5.60875,7.5 C6.9075,7.5 7.78375,7.70375 8.205,8.11 C8.63375,8.52 8.85,9.01 8.85,9.56375 C8.85,10.1025 8.62,10.5475 8.16625,10.88 C7.71,11.215 7.01,11.385 6.09125,11.385 L2.5,11.385 L2.5,7.5 L2.5,7.5 Z M5.60875,7.29375 L2.25375,7.29375 L2.25375,11.5925 L6.09125,11.5925 C7.075,11.5925 7.8275,11.40625 8.335,11.03375 C8.84,10.66 9.09625,10.16625 9.09625,9.56375 C9.09625,8.95625 8.855,8.4225 8.38875,7.975 C7.91125,7.515 7.00125,7.29375 5.60875,7.29375 L5.60875,7.29375 Z M2.5,1.715 L6.3625,1.715 C7.29625,1.715 8.03,1.90875 8.53,2.2875 C9.0425,2.6675 9.28375,3.15 9.28375,3.76125 C9.28375,4.19 9.17,4.5875 8.93875,4.9575 C8.71375,5.31875 8.38875,5.60125 7.975,5.80125 C7.5625,5.9975 6.9275,6.1 6.09125,6.1 L2.5,6.1 L2.5,1.715 L2.5,1.715 Z M6.3625,1.51125 L2.25375,1.51125 L2.25375,6.3075 L6.09125,6.3075 C6.97125,6.3075 7.645,6.19625 8.09875,5.98 C8.55125,5.7625 8.91,5.45 9.16,5.055 C9.40625,4.6575 9.53,4.22125 9.53,3.76125 C9.53,3.095 9.24875,2.54875 8.69375,2.1325 C8.1475,1.7175 7.36125,1.51125 6.3625,1.51125 L6.3625,1.51125 Z M0.70375,0.34 L6.46,0.34 C8.05375,0.34 9.25375,0.665 10.0125,1.30375 C10.77375,1.94625 11.1575,2.755 11.1575,3.7075 C11.1575,4.4175 10.91125,5.06 10.42,5.62125 C9.9325,6.18125 9.17,6.5775 8.15625,6.795 L7.74375,6.8875 L8.15125,6.99625 C9.87,7.44875 10.70125,8.33875 10.70125,9.72 C10.70125,10.4975 10.35125,11.18625 9.6625,11.775 C8.97875,12.365 7.89625,12.6625 6.46,12.6625 L0.70375,12.6625 L0.70375,0.34 L0.70375,0.34 Z M6.46,0.1325 L0.45875,0.1325 L0.45875,12.87 L6.46,12.87 C7.97,12.87 9.10125,12.5525 9.83875,11.9225 C10.5725,11.295 10.94625,10.555 10.94625,9.72 C10.94625,8.36 10.15375,7.41375 8.595,6.90375 C9.48,6.66125 10.15875,6.27125 10.61625,5.74375 C11.1375,5.14875 11.40375,4.46125 11.40375,3.7075 C11.40375,2.69875 10.99625,1.84125 10.18875,1.15875 C9.3775,0.4775 8.1225,0.1325 6.46,0.1325 L6.46,0.1325 Z" id="path26" fill="#231F20"></path>
                                </g>
                                <g id="g28" stroke-width="1" fill="none" transform="translate(329.950000, 23.585250)">
                                    <path d="M2.5,7.5 L6.385,7.5 C7.41,7.5 8.17125,7.72625 8.6775,8.18375 C9.18125,8.6375 9.43625,9.19625 9.43625,9.85875 C9.43625,10.5175 9.165,11.03375 8.63375,11.4 C8.09875,11.7675 7.42875,11.95375 6.6125,11.95375 L2.5,11.95375 L2.5,7.5 L2.5,7.5 Z M11.4475,0.8 L9.5,0.8 L6.755,6.22375 L2.5,6.22375 L2.5,0.8 L0.7575,0.8 L0.7575,13.32875 L6.6125,13.32875 C8.20625,13.32875 9.3825,12.9625 10.14375,12.23125 C10.91125,11.50125 11.295,10.7 11.295,9.83125 C11.295,9.1625 11.07875,8.5225 10.65125,7.9125 C10.22875,7.3 9.52,6.8625 8.53125,6.59875 L11.4475,0.8 L11.4475,0.8 Z" id="path30" fill="#000000"></path>
                                </g>
                                <g id="g32" stroke-width="1" fill="none" transform="translate(330.073250, 23.687750)">
                                    <path d="M2.5,7.5 L6.2625,7.5 C7.24625,7.5 7.985,7.72 8.46625,8.15125 C8.94375,8.5875 9.19,9.12625 9.19,9.75625 C9.19,10.39125 8.94375,10.8675 8.4325,11.22 C7.925,11.56875 7.27,11.745 6.48875,11.745 L2.5,11.745 L2.5,7.5 L2.5,7.5 Z M6.2625,7.29375 L2.25375,7.29375 L2.25375,11.9525 L6.48875,11.9525 C7.33,11.9525 8.03375,11.76 8.58875,11.38 C9.15,10.9925 9.43125,10.44625 9.43125,9.75625 C9.43125,9.0725 9.17,8.48625 8.64375,8.00875 C8.1175,7.53375 7.31625,7.29375 6.2625,7.29375 L6.2625,7.29375 Z M9.455,0.80125 L11.1375,0.80125 L8.24,6.5625 L8.3725,6.5975 C9.3275,6.85 10.01625,7.27625 10.425,7.86375 C10.8375,8.455 11.05,9.0825 11.05,9.72875 C11.05,10.5675 10.675,11.3525 9.9325,12.06 C9.19375,12.76375 8.03875,13.1225 6.48875,13.1225 L0.7575,13.1225 L0.7575,0.80125 L2.25375,0.80125 L2.25375,6.22375 L6.715,6.22375 L6.745,6.1625 L9.455,0.80125 L9.455,0.80125 Z M11.51125,0.59375 L9.29375,0.59375 L9.26375,0.655 L6.5525,6.01625 L2.5,6.01625 L2.5,0.59375 L0.5125,0.59375 L0.5125,13.33 L6.48875,13.33 C8.1075,13.33 9.3275,12.95 10.115,12.19875 C10.89625,11.45 11.295,10.61875 11.295,9.72875 C11.295,9.045 11.07375,8.38375 10.63625,7.75625 C10.2125,7.15375 9.51875,6.71 8.57375,6.435 L11.51125,0.59375 L11.51125,0.59375 Z" id="path34" fill="#231F20"></path>
                                </g>
                                <g id="g36" stroke-width="1" fill="none" transform="translate(361.818875, 23.259250)">
                                    <polygon id="path38" fill="#000000" points="10 2.5 10 1.125 0.38875 1.125 0.38875 13.655 9.7925 13.655 9.7925 12.28 2.2475 12.28 2.2475 8.2925 8.23375 8.2925 8.23375 7.01875 2.2475 7.01875 2.2475 2.5"></polygon>
                                </g>
                                <g id="g40" stroke-width="1" fill="none" transform="translate(361.074250, 23.238500)">
                                    <path d="M1.25,1.25 L10.62125,1.25 L10.62125,2.42125 L2.87375,2.42125 L2.87375,7.14 L8.855,7.14 L8.855,8.21 L2.87375,8.21 L2.87375,12.40125 L10.415,12.40125 L10.415,13.57125 L1.25,13.57125 L1.25,1.25 L1.25,1.25 Z M10.86625,1.0425 L1.01,1.0425 L1.01,13.77875 L10.66,13.77875 L10.66,12.195 L3.115,12.195 L3.115,8.41625 L9.10125,8.41625 L9.10125,6.93375 L3.115,6.93375 L3.115,2.625 L10.86625,2.625 L10.86625,1.0425 L10.86625,1.0425 Z" id="path42" fill="#231F20"></path>
                                </g>
                                <g id="g44" stroke-width="1" fill="none" transform="translate(390.690875, 23.164125)">
                                    <polygon id="path46" fill="#000000" points="17.5 13.75 13.93 1.22125 12.065 1.22125 8.81875 10.93875 5.8125 1.22125 3.89375 1.22125 0.12125 13.75 2.055 13.75 5.03 3.59625 8.18375 13.75 9.69875 13.75 13.09875 3.59625 15.86625 13.75"></polygon>
                                </g>
                                <g id="g48" stroke-width="1" fill="none" transform="translate(390.349125, 23.238500)">
                                    <path d="M12.5,1.25 L14.1725,1.25 L17.69,13.57125 L16.3075,13.57125 L13.45,3.10375 L9.94625,13.57125 L8.61875,13.57125 L5.3675,3.10125 L2.3025,13.57125 L0.625,13.57125 L4.33375,1.25 L6.05625,1.25 L9.155,11.2625 L9.2825,10.89625 L12.5,1.25 L12.5,1.25 Z M14.36375,1.0425 L12.31375,1.0425 L12.28375,1.1175 L9.165,10.46875 L6.2475,1.0425 L4.14125,1.0425 L4.1175,1.12 L0.31,13.77875 L2.48875,13.77875 L5.3775,3.9425 L8.43125,13.77875 L10.13375,13.77875 L10.15875,13.705 L13.425,3.94 L16.11125,13.77875 L18,13.77875 L17.965,13.65375 L14.36375,1.0425 L14.36375,1.0425 Z" id="path50" fill="#231F20"></path>
                                </g>
                                <polygon id="path52" fill="#000000" points="430.17625 24.385 428.31125 24.385 428.31125 36.91375 430.17625 36.91375"></polygon>
                                <path d="M428.43375,24.48875 L430.0475,24.48875 L430.0475,36.81 L428.43375,36.81 L428.43375,24.48875 L428.43375,24.48875 Z M430.2925,24.28125 L428.1875,24.28125 L428.1875,37.0175 L430.2925,37.0175 L430.2925,24.28125 L430.2925,24.28125 Z" id="path54" fill="#231F20"></path>
                                <g id="g56" stroke-width="1" fill="none" transform="translate(451.407500, 24.384750)">
                                    <path d="M11.25,0 L9.45,0 L1.76,10.9225 L1.78125,10.09625 C1.805,9.78375 1.815,9.52125 1.815,9.30625 L1.815,0 L0.31375,0 L0.31375,12.52875 L2.64125,12.52875 L9.8225,2.3175 L9.80875,3.19 C9.78875,3.53125 9.78375,3.83375 9.78375,4.0975 L9.78375,12.52875 L11.25,12.52875 L11.25,0 L11.25,0 Z" id="path58" fill="#000000"></path>
                                </g>
                                <g id="g60" stroke-width="1" fill="none" transform="translate(450.925250, 23.238500)">
                                    <path d="M10,1.25 L11.61375,1.25 L11.61375,13.57125 L10.39,13.57125 L10.39,5.24375 C10.39,4.9825 10.39375,4.68 10.40875,4.33875 L10.4425,3.0725 L3.05375,13.57125 L0.91875,13.57125 L0.91875,1.25 L2.17875,1.25 L2.17875,10.4525 C2.17875,10.665 2.16375,10.9275 2.145,11.235 L2.10875,12.46375 L2.34625,12.12125 L10,1.25 L10,1.25 Z M11.86,1.0425 L9.85875,1.0425 L9.8225,1.0925 L2.375,11.67375 L2.39,11.245 C2.41,10.935 2.42,10.6675 2.42,10.4525 L2.42,1.0425 L0.67375,1.0425 L0.67375,13.77875 L3.1925,13.77875 L3.23125,13.72875 L10.17875,3.85625 L10.16375,4.33375 C10.1525,4.675 10.1425,4.9775 10.1425,5.24375 L10.1425,13.77875 L11.86,13.77875 L11.86,1.0425 L11.86,1.0425 Z" id="path62" fill="#231F20"></path>
                                </g>
                                <g id="g64" stroke-width="1" fill="none" transform="translate(482.712375, 23.198250)">
                                    <path d="M12.5,7.5 L12.5,1.01 L11.365,1.01 L10.8525,2.5775 C9.9375,1.48 8.575,0.9275 6.77,0.9275 C4.8075,0.9275 3.28125,1.55 2.195,2.7925 C1.1025,4.035 0.56125,5.545 0.56125,7.32 C0.56125,9.22 1.1375,10.80375 2.2875,12.07 C3.445,13.34 5.01375,13.97375 6.99125,13.97375 C9.73125,13.97375 11.51125,12.76125 12.34875,10.33875 L10.5825,9.97875 C10.33125,10.91 9.85375,11.58625 9.16,12.00875 C8.46625,12.43125 7.69875,12.64 6.8725,12.64 C5.4075,12.64 4.325,12.14125 3.63125,11.1425 C2.9325,10.14625 2.5825,8.8925 2.5825,7.38625 C2.5825,5.76125 2.9725,4.4925 3.755,3.57625 C4.53625,2.6625 5.59375,2.205 6.9425,2.205 C7.985,2.205 8.855,2.4975 9.55375,3.0825 C10.2575,3.66625 10.60625,4.4775 10.60625,5.5075 C10.60625,5.6975 10.5975,5.92375 10.5825,6.18875 L6.90625,6.18875 L6.90625,7.5 L12.5,7.5 L12.5,7.5 Z" id="path66" fill="#000000"></path>
                                </g>
                                <g id="g68" stroke-width="1" fill="none" transform="translate(482.203375, 23.316625)">
                                    <path d="M7.5,13.75 C5.57125,13.75 4.0225,13.125 2.895,11.89125 C1.76375,10.64875 1.19375,9.0725 1.19375,7.2025 C1.19375,5.45625 1.735,3.9525 2.80125,2.735 C3.86,1.52875 5.365,0.9125 7.27875,0.9125 C9.035,0.9125 10.3725,1.45125 11.25875,2.5225 L11.41125,2.70125 L11.96625,0.99375 L12.8875,0.99375 L12.8875,7.27875 L7.53875,7.27875 L7.53875,6.17125 L11.215,6.17125 L11.22,6.0725 C11.23375,5.8075 11.23875,5.57875 11.23875,5.39 C11.23875,4.335 10.875,3.49375 10.15125,2.89 C9.42875,2.2875 8.5225,1.9825 7.45125,1.9825 C6.0675,1.9825 4.9625,2.4575 4.165,3.3975 C3.3725,4.3275 2.975,5.62875 2.975,7.2675 C2.975,8.78875 3.32875,10.06875 4.0325,11.07875 C4.75,12.105 5.87625,12.62625 7.38125,12.62625 C8.23375,12.62625 9.025,12.41 9.73875,11.97375 C10.4325,11.555 10.91875,10.88625 11.185,9.98625 L12.705,10.29375 C11.86875,12.61875 10.16125,13.75 7.5,13.75 M7.27875,0.70625 C5.28625,0.70625 3.7125,1.34875 2.605,2.6125 C1.50375,3.8675 0.9475,5.41125 0.9475,7.2025 C0.9475,9.11875 1.5375,10.7375 2.70375,12.015 C3.875,13.305 5.49375,13.95875 7.5,13.95875 C10.285,13.95875 12.12875,12.71 12.975,10.2475 L13.01375,10.14625 L12.8875,10.12 L11.0025,9.73625 L10.9725,9.83625 C10.7275,10.74 10.265,11.40125 9.59625,11.80625 C8.9275,12.2125 8.17875,12.4175 7.38125,12.4175 C5.97,12.4175 4.9125,11.9325 4.24375,10.97 C3.565,9.99625 3.215,8.75 3.215,7.2675 C3.215,5.6725 3.605,4.4125 4.36125,3.52 C5.11375,2.63625 6.1575,2.19 7.45125,2.19 C8.455,2.19 9.305,2.475 9.97875,3.04125 C10.6525,3.60125 10.9925,4.39125 10.9925,5.39 C10.9925,5.55375 10.9875,5.74625 10.9725,5.965 L7.29375,5.965 L7.29375,7.485 L13.1325,7.485 L13.1325,0.7875 L11.78,0.7875 L11.3075,2.22875 C10.3775,1.21875 9.025,0.70625 7.27875,0.70625" id="path70" fill="#231F20"></path>
                                </g>
                                <g id="g72" stroke-width="1" fill="none" transform="translate(538.779250, 23.597375)">
                                    <path d="M10,5 L11.69625,4.6775 C10.885,1.91375 9.05,0.52875 6.18625,0.52875 C4.3125,0.52875 2.8375,1.16875 1.765,2.45 C0.6975,3.72875 0.16125,5.3025 0.16125,7.17 C0.16125,9.1 0.71625,10.65125 1.83875,11.81875 C2.955,12.99 4.45125,13.57375 6.33375,13.57375 C9.11875,13.57375 10.91,12.23125 11.69625,9.54375 L9.945,9.25 C9.305,11.245 8.1,12.24125 6.32,12.24125 C5.01125,12.24125 3.9875,11.78 3.265,10.8525 C2.54625,9.92375 2.1875,8.6225 2.1875,6.94625 C2.1875,5.40875 2.55625,4.1775 3.295,3.25 C4.03625,2.32375 5.01625,1.85875 6.23625,1.85875 C8.13,1.85875 9.385,2.905 10,5" id="path74" fill="#000000"></path>
                                </g>
                                <g id="g76" stroke-width="1" fill="none" transform="translate(537.613500, 23.316625)">
                                    <path d="M7.5,13.75 C5.665,13.75 4.185,13.17125 3.0975,12.03625 C2.005,10.88875 1.44875,9.34875 1.44875,7.45125 C1.44875,5.6125 1.98125,4.04625 3.03375,2.78875 C4.07625,1.545 5.5275,0.9125 7.3525,0.9125 C10.1025,0.9125 11.9025,2.24875 12.715,4.8825 L11.25875,5.15875 C10.61375,3.0875 9.32,2.0375 7.4025,2.0375 C6.1425,2.0375 5.12,2.52 4.35625,3.47375 C3.61,4.4125 3.23,5.675 3.23,7.22625 C3.23,8.91375 3.6,10.2475 4.3325,11.18875 C5.075,12.14625 6.1375,12.62625 7.485,12.62625 C9.29125,12.62625 10.54125,11.625 11.2,9.6525 L12.715,9.905 C11.9175,12.4925 10.21125,13.75 7.5,13.75 M7.3525,0.70625 C5.44375,0.70625 3.925,1.36625 2.8325,2.6725 C1.75375,3.9625 1.20375,5.56875 1.20375,7.45125 C1.20375,9.3975 1.77375,10.98 2.90625,12.1625 C4.04125,13.3575 5.5875,13.95875 7.5,13.95875 C10.33375,13.95875 12.18375,12.575 12.985,9.84875 L13.015,9.74125 L11.0225,9.40875 L10.9925,9.505 C10.36875,11.465 9.2175,12.4175 7.485,12.4175 C6.22625,12.4175 5.23375,11.96875 4.53875,11.07625 C3.83,10.16875 3.47125,8.875 3.47125,7.22625 C3.47125,5.71875 3.84,4.495 4.56375,3.58875 C5.2775,2.69625 6.23125,2.24375 7.4025,2.24375 C9.24625,2.24375 10.4425,3.245 11.0475,5.30625 L11.07625,5.40375 L13.015,5.0375 L12.985,4.93125 C12.16375,2.1275 10.265,0.70625 7.3525,0.70625" id="path78" fill="#231F20"></path>
                                </g>
                                <g id="g80" stroke-width="1" fill="none" transform="translate(569.541000, 22.902875)">
                                    <path d="M6.25,2.5 C7.5475,2.5 8.5675,2.99875 9.29875,3.9975 C10.03125,4.99375 10.395,6.28 10.395,7.8575 C10.395,9.4725 10.0175,10.7325 9.26,11.6325 C8.5025,12.5325 7.49875,12.98375 6.23875,12.98375 C4.97125,12.98375 3.9625,12.49625 3.21375,11.5225 C2.46625,10.5475 2.0925,9.27375 2.0925,7.7 C2.0925,6.1625 2.47125,4.91125 3.22375,3.94625 C3.9825,2.9825 4.99,2.5 6.25,2.5 M6.21,1.22375 C4.29625,1.22375 2.81,1.84875 1.74375,3.1025 C0.67625,4.35375 0.14375,5.89 0.14375,7.71 C0.14375,9.60875 0.70125,11.175 1.82125,12.4125 C2.93875,13.65 4.41875,14.26875 6.26,14.26875 C8.09875,14.26875 9.57,13.66 10.68125,12.44375 C11.79375,11.22875 12.34875,9.6975 12.34875,7.8475 C12.34875,6.07125 11.8075,4.52375 10.73,3.20375 C9.65375,1.8825 8.14375,1.22375 6.21,1.22375" id="path82" fill="#000000"></path>
                                </g>
                                <g id="g84" stroke-width="1" fill="none" transform="translate(569.530000, 23.282500)">
                                    <path d="M6.25,12.5 C5.03,12.5 4.04625,12.025 3.32875,11.08625 C2.595,10.13375 2.22625,8.865 2.22625,7.32 C2.22625,5.81 2.6,4.5675 3.33875,3.6225 C4.06625,2.69625 5.05,2.22375 6.26125,2.22375 C7.52875,2.22375 8.48875,2.69875 9.20625,3.67125 C9.925,4.64875 10.28875,5.93 10.28875,7.4775 C10.28875,9.06375 9.91125,10.31625 9.1725,11.19375 C8.44,12.05875 7.46125,12.5 6.25,12.5 M6.26125,2.01625 C4.9625,2.01625 3.90875,2.52 3.13625,3.51125 C2.37,4.4875 1.98125,5.77 1.98125,7.32 C1.98125,8.90625 2.365,10.2125 3.12125,11.20125 C3.88875,12.2 4.9425,12.70625 6.25,12.70625 C7.54375,12.70625 8.5925,12.23875 9.37375,11.315 C10.14125,10.39625 10.53,9.10875 10.53,7.4775 C10.53,5.89125 10.15625,4.5725 9.4175,3.565 C8.66125,2.53625 7.60375,2.01625 6.26125,2.01625 M6.27125,13.78375 C4.47875,13.78375 3.01375,13.17375 1.93125,11.96875 C0.83375,10.75875 0.27875,9.19625 0.27875,7.33 C0.27875,5.54 0.80875,4.00875 1.8525,2.785 C2.89,1.565 4.36125,0.9475 6.22125,0.9475 C8.10375,0.9475 9.59125,1.59875 10.63875,2.88375 C11.7,4.18 12.2325,5.72125 12.2325,7.46875 C12.2325,9.285 11.68125,10.81 10.595,12.00375 C9.51625,13.18625 8.06,13.78375 6.27125,13.78375 M6.22125,0.74125 C4.27875,0.74125 2.7425,1.385 1.65625,2.66125 C0.57875,3.92625 0.0325,5.495 0.0325,7.33 C0.0325,9.24375 0.6075,10.8475 1.735,12.0975 C2.87125,13.35625 4.39625,13.9925 6.27125,13.9925 C8.14,13.9925 9.66,13.365 10.79125,12.12875 C11.9125,10.89875 12.4775,9.3325 12.4775,7.46875 C12.4775,5.6775 11.9325,4.095 10.845,2.765 C9.7425,1.4225 8.18875,0.74125 6.22125,0.74125" id="path86" fill="#231F20"></path>
                                </g>
                                <g id="g88" stroke-width="1" fill="none" transform="translate(601.871375, 24.384750)">
                                    <polygon id="path90" fill="#000000" points="15 0 13.19 0 13.19 10.94 8.3675 0 7.105 0 2.22875 10.94 2.22875 0 0.65125 0 0.65125 12.52875 3.405 12.52875 7.89625 2.50625 12.27375 12.52875 15 12.52875"></polygon>
                                </g>
                                <g id="g92" stroke-width="1" fill="none" transform="translate(601.433125, 23.238500)">
                                    <path d="M13.75,1.25 L15.31,1.25 L15.31,13.57125 L12.80125,13.57125 L8.335,3.355 L3.76,13.57125 L1.21125,13.57125 L1.21125,1.25 L2.54375,1.25 L2.54375,12.66 L7.62625,1.25 L8.72375,1.25 L13.75,12.665 L13.75,1.25 L13.75,1.25 Z M15.55625,1.0425 L13.505,1.0425 L13.505,11.51125 L8.89,1.0425 L7.45375,1.0425 L7.42375,1.1075 L2.79,11.51625 L2.79,1.0425 L0.965,1.0425 L0.965,13.77875 L3.9325,13.77875 L8.335,3.95 L12.63,13.77875 L15.55625,13.77875 L15.55625,1.0425 L15.55625,1.0425 Z" id="path94" fill="#231F20"></path>
                                </g>
                                <g id="g96" stroke-width="1" fill="none" transform="translate(637.777125, 23.275125)">
                                    <path d="M2.5,7.5 L5.91875,7.5 C6.795,7.5 7.5025,7.71875 8.03875,8.16375 C8.575,8.60625 8.845,9.1925 8.845,9.92 C8.845,10.545 8.61,11.10125 8.1275,11.59125 C7.65,12.0825 6.95625,12.325 6.04625,12.325 L2.5,12.325 L2.5,7.5 L2.5,7.5 Z M2.5,1.11 L0.64125,1.11 L0.64125,13.63875 L5.90375,13.63875 C7.5575,13.63875 8.7725,13.26 9.555,12.505 C10.33625,11.75 10.73,10.88875 10.73,9.92 C10.73,8.8425 10.30125,7.95375 9.45125,7.24875 C8.595,6.545 7.4775,6.19375 6.1,6.19375 L2.5,6.19375 L2.5,1.11 L2.5,1.11 Z" id="path98" fill="#000000"></path>
                                </g>
                                <g id="g100" stroke-width="1" fill="none" transform="translate(637.900375, 23.377625)">
                                    <path d="M2.5,7.5 L5.79625,7.5 C6.63625,7.5 7.32,7.715 7.8325,8.135 C8.34875,8.56125 8.59875,9.11375 8.59875,9.8175 C8.59875,10.415 8.3675,10.95625 7.91,11.42375 C7.45875,11.88625 6.79,12.12125 5.9225,12.12125 L2.5,12.12125 L2.5,7.5 L2.5,7.5 Z M5.79625,7.29125 L2.25375,7.29125 L2.25375,12.32875 L5.9225,12.32875 C6.8675,12.32875 7.595,12.0675 8.09875,11.55625 C8.59375,11.05 8.845,10.46375 8.845,9.8175 C8.845,9.065 8.56,8.4475 8.00375,7.9875 C7.44375,7.525 6.7,7.29125 5.79625,7.29125 L5.79625,7.29125 Z M0.635,1.11125 L2.25375,1.11125 L2.25375,6.19375 L5.97625,6.19375 C7.32,6.19375 8.41625,6.54 9.23875,7.22 C10.065,7.90125 10.48375,8.775 10.48375,9.8175 C10.48375,10.75625 10.1,11.6 9.3375,12.33625 C8.57875,13.06375 7.38875,13.4325 5.78,13.4325 L0.635,13.4325 L0.635,1.11125 L0.635,1.11125 Z M2.5,0.90375 L0.39375,0.90375 L0.39375,13.64 L5.78,13.64 C7.46375,13.64 8.7175,13.24875 9.52375,12.46875 C10.32625,11.69875 10.72875,10.80625 10.72875,9.8175 C10.72875,8.71875 10.28625,7.7925 9.41625,7.0725 C8.54,6.35375 7.38375,5.9875 5.97625,5.9875 L2.5,5.9875 L2.5,0.90375 L2.5,0.90375 Z" id="path102" fill="#231F20"></path>
                                </g>
                                <g id="g104" stroke-width="1" fill="none" transform="translate(665.288125, 24.220000)">
                                    <path d="M8.75,5 L6.4475,11.02375 L4.15,5 L8.75,5 L8.75,5 Z M12.54125,0.165 L10.63875,0.165 L9.1425,3.8275 L3.6325,3.8275 L2.305,0.165 L0.74625,0.165 L5.57625,12.69375 L7.6825,12.69375 L12.54125,0.165 L12.54125,0.165 Z" id="path106" fill="#000000"></path>
                                </g>
                                <g id="g108" stroke-width="1" fill="none" transform="translate(665.855750, 23.073750)">
                                    <path d="M3.75,6.25 L8.01375,6.25 L5.88,11.83125 L3.75,6.25 L3.75,6.25 Z M8.35375,6.04375 L3.41375,6.04375 L3.46375,6.1775 L5.88,12.5075 L8.35375,6.04375 L8.35375,6.04375 Z M10.16,1.415 L11.8025,1.415 L7.02,13.73625 L5.0975,13.73625 L0.35,1.415 L1.64375,1.415 L2.9725,5.0775 L8.66375,5.0775 L8.69375,5.005 L10.16,1.415 L10.16,1.415 Z M12.1425,1.2075 L9.98125,1.2075 L9.9575,1.27625 L8.4925,4.87 L3.15375,4.87 L1.82625,1.2075 L0.01125,1.2075 L0.065,1.3425 L4.92125,13.94375 L7.20375,13.94375 L7.2275,13.875 L12.1425,1.2075 L12.1425,1.2075 Z" id="path110" fill="#231F20"></path>
                                </g>
                                <g id="g112" stroke-width="1" fill="none" transform="translate(697.286375, 24.384750)">
                                    <path d="M11.25,0 L9.445,0 L1.76,10.9225 L1.78125,10.09625 C1.805,9.78375 1.815,9.52125 1.815,9.30625 L1.815,0 L0.31375,0 L0.31375,12.52875 L2.64125,12.52875 L9.8275,2.3175 L9.80375,3.19 C9.78875,3.53125 9.78375,3.83375 9.78375,4.0975 L9.78375,12.52875 L11.25,12.52875 L11.25,0 L11.25,0 Z" id="path114" fill="#000000"></path>
                                </g>
                                <g id="g116" stroke-width="1" fill="none" transform="translate(696.804250, 23.238500)">
                                    <path d="M10,1.25 L11.61375,1.25 L11.61375,13.57125 L10.39,13.57125 L10.39,5.24375 C10.39,4.9825 10.39375,4.68 10.40875,4.33875 L10.4425,3.0725 L3.05375,13.57125 L0.91375,13.57125 L0.91375,1.25 L2.17375,1.25 L2.17375,10.4525 C2.17375,10.665 2.16375,10.9275 2.145,11.235 L2.10875,12.46375 L2.34625,12.12125 L10,1.25 L10,1.25 Z M11.855,1.0425 L9.85875,1.0425 L9.8225,1.0925 L2.375,11.67375 L2.39,11.245 C2.41,10.935 2.42,10.6675 2.42,10.4525 L2.42,1.0425 L0.67375,1.0425 L0.67375,13.77875 L3.1925,13.77875 L3.23125,13.72875 L10.17875,3.85625 L10.1625,4.33375 C10.1525,4.675 10.1425,4.9775 10.1425,5.24375 L10.1425,13.77875 L11.855,13.77875 L11.855,1.0425 L11.855,1.0425 Z" id="path118" fill="#231F20"></path>
                                </g>
                                <g id="g120" stroke-width="1" fill="none" transform="translate(727.318125, 23.164125)">
                                    <polygon id="path122" fill="#000000" points="12.5 13.75 7.52625 6.48875 7.52625 1.22125 5.66125 1.22125 5.66125 6.48875 0.68875 13.75 2.89125 13.75 6.8325 7.9925 10.8025 13.75"></polygon>
                                </g>
                                <g id="g124" stroke-width="1" fill="none" transform="translate(726.853000, 23.238500)">
                                    <path d="M6.25,1.25 L7.86875,1.25 L7.86875,6.44125 L7.88375,6.46625 L12.75375,13.57125 L11.33625,13.57125 L7.2975,7.71125 L7.19,7.86625 L3.28375,13.57125 L1.365,13.57125 L6.25,6.44125 L6.25,1.25 L6.25,1.25 Z M8.11375,1.0425 L6.00375,1.0425 L6.00375,6.3875 L0.9425,13.77875 L3.42625,13.77875 L3.46125,13.72875 L7.2975,8.12625 L11.19875,13.77875 L13.17625,13.77875 L13.0725,13.62375 L8.11375,6.3875 L8.11375,1.0425 L8.11375,1.0425 Z" id="path126" fill="#231F20"></path>
                                </g>
                                <g id="g128" stroke-width="1" fill="none" transform="translate(0.262500, 0.393625)">
                                    <path d="M206.25,378.75 C206.895,376.52375 205.1425,373.6175 203.98625,370.58125 C202.005,365.40375 199.6625,360.2075 195.81625,356.9725 C194.76375,350.4275 198.7375,344.71625 199.4475,338.3675 C199.835,334.92875 198.4275,330.8875 199.4475,327.47875 C201.29625,321.28625 211.2625,322.31625 214.42,317.045 C222.89625,322.48375 230.015,329.28 236.65,336.555 C236.695,338.41 234.4025,337.935 233.93125,339.275 C234.27,342.26625 237.365,342.4975 238.01375,345.17625 C237.49125,348.1325 234.7375,348.8575 233.025,350.62 C230.245,356.00375 231.74625,363.79875 232.5675,368.76875 C236.385,363.66 233.51625,351.86625 240.73875,350.16375 C243.91625,351.82875 245.90875,357.95375 243.91125,361.9625 C245.3425,364.61375 246.69125,367.35 248.905,369.22125 C248.96875,368.23 250.045,368.2475 251.1725,368.31375 C250.00125,364.94125 246.9425,360.2 249.35625,356.065 C245.93375,351.775 244.66375,345.33125 240.73875,341.54625 C241.67375,339.76 242.9125,338.28125 243.45875,336.1 C238.34875,330.23625 231.76125,325.08625 225.76375,319.31375 C223.7725,317.395 221.0075,315.61625 219.86625,313.87 C218.93625,312.45 218.99,310.15125 218.04625,308.425 C212.7625,298.71875 199.89375,297.19375 199.4475,283.92375 C195.24,280.26625 189.11625,278.5275 187.1975,272.58 C180.1775,273.48125 178.43125,265.7775 175.85375,260.78375 C182.51,257.31125 186.49875,265.24125 191.28,266.2275 C194.43375,266.87875 198.55125,265.4425 201.71875,265.775 C207.19875,266.3525 216.67375,271.855 220.77125,274.39625 C222.70875,275.59375 225.66,277.83125 226.67,279.83875 C230.02,286.48375 227.82625,292.94625 236.65,295.72 C235.6125,300.66625 237.68375,304.845 237.56125,309.33125 C237.48625,312.165 235.785,314.4625 236.1975,317.045 C236.76375,320.57 240.1925,322.545 240.73875,326.11875 C244.97,325.1125 241.96875,320.01625 240.73875,317.95 C258.77375,320.94125 252.15125,352.51625 262.96875,364.23125 C266.28875,357.18375 258.4325,349.045 261.15375,339.73125 C262.96875,342.44125 266.49,343.4025 268.41375,346.08375 C270.78,349.375 270.88875,353.9525 273.4025,357.425 C274.83875,357.64875 275.00625,356.60875 276.58125,356.9725 C276.35375,349.91625 271.9525,345.17875 268.41375,341.09125 C264.75,336.8575 261.4925,332.4325 257.52375,328.38625 C258.305,327.35625 258.62,325.85375 258.4325,323.84875 C252.6325,317.39875 242.5925,315.18625 245.72625,299.80375 C255.54125,303.6225 266.7375,300.575 271.5875,308.8775 C273.97875,312.9625 276.17625,322.49625 273.86,326.57125 C275.93625,333.245 278.8875,339.5625 281.57375,346.08375 C282.20875,347.62875 282.94125,351.25875 285.65125,350.62 C290.7825,343.30875 279.90125,338.5025 281.11625,329.29625 C284.3175,329.27125 286.36,334.33375 290.645,334.74 C288.71625,329.5625 285.36125,325.80375 280.6625,323.39625 C280.24,320.34125 280.0975,317.00875 280.21125,313.415 C284.99625,314.98375 293.015,317.245 295.6325,322.48875 C295.81375,324.63375 295.49,326.27625 295.18,327.93375 C300.915,328.92 300.075,338.6825 307.43375,336.555 C305.72625,329.94625 300.1475,327.20375 299.2675,319.765 C307.1925,314.9675 311.88625,324.1 316.96125,326.57125 C317.63,323.175 314.065,320.50125 311.96875,318.40625 C310.04,316.4775 307.43375,313.1225 305.16625,312.0525 C299.69625,309.4775 291.16125,313.00875 287.4725,307.51625 C291.6675,307.09625 293.61625,308.93125 297.905,308.425 C295.485,305.39875 291.27875,304.1625 286.56125,303.43125 C281.205,299.415 278.8325,292.9975 271.13875,292.545 C268.66125,292.3975 265.86,293.9025 262.96875,293.4525 C261.35,293.1975 260.5725,291.86375 258.885,291.1825 C251.31,288.1325 242.43,287.3625 238.01375,281.65375 C235.81375,275.89125 233.75375,269.05875 229.39,265.31875 C224.0225,260.7175 215.655,259.7875 208.975,255.79375 C206.93875,254.57125 205.27625,251.82375 203.0775,250.8025 C199.00375,248.90625 193.9175,250.12875 189.465,249.44 C183.32125,248.49 180.035,244.6075 174.49625,243.09 C171.5975,238.2225 165.79875,235.275 163.15125,229.93 C162.1675,227.945 162.45375,225.6875 161.33625,224.0325 C159.19625,220.87375 154.6275,220.70625 153.6225,216.32125 C162.1725,211.15875 165.5525,224.19 171.77125,225.395 C176.385,226.2875 179.36125,222.6625 184.02,222.21625 C191.09375,221.5425 204.8225,219.10375 209.885,220.8575 C219.39375,224.155 229.985,226.21875 234.84,234.0125 C235.85875,235.65375 236.095,237.46375 237.10875,239.00625 C238.02375,240.39875 239.8425,241.5575 240.73875,243.09 C243.81875,248.38 242.55875,254.70875 244.82125,262.14375 C249.24,265.70125 257.63,266.665 265.23625,266.2275 C266.9575,266.12875 268.72375,265.38875 270.23,265.775 C274.70125,266.92625 273.9975,271.73375 276.58125,274.8475 C283.57,276.32875 286.31,282.06 285.65125,291.1825 C289.5175,294.43125 294.4475,296.70375 297.4525,300.71125 C298.87,302.6025 298.79,306.03875 301.98875,306.15375 C305.2,295.1725 287.535,294.9675 289.73375,283.46875 C294.79125,286.70875 299.5875,293.41125 305.61875,297.98875 C307.77375,299.62375 310.745,300.4425 311.96875,302.07375 C313.86875,304.59 312.86,310.4125 317.8675,308.8775 C318.335,307.1425 316.73625,305.925 316.0525,304.34125 C315.29875,302.5975 315.1675,300.1725 314.2375,298.89625 C312.99625,297.18625 309.0025,295.43 306.52875,293.4525 C297.54125,286.27125 290.12375,276.4125 280.21125,271.2175 C280.00375,267.33875 277.85875,265.40625 277.93875,261.23625 C268.955,259.335 257.43875,259.96 252.0825,254.43 C250.38,247.35625 247.37,241.59375 246.17875,234.0125 C250.7,232.58375 254.8575,235.2725 257.52375,237.19125 C260.20875,237 260.72,234.6425 262.96875,234.0125 C275.00125,234.08 283.8175,237.36125 292.00625,241.275 C294.04375,248.91125 298.43625,258.425 299.2675,268.0425 C299.50375,270.83625 298.97875,273.6525 299.72,275.755 C300.985,279.36375 305.32875,280.75375 306.52875,283.92375 C306.81875,286.65375 305.54,290.95375 308.33875,291.1825 C310.375,291.8025 310.54375,289.355 309.70125,288.46 C313.51875,289.485 312.9775,294.8625 318.7775,293.905 C316.9875,288.4325 311.59,286.57 310.15375,280.74625 C305.30875,278.93875 302.87375,274.7225 302.8975,268.0425 C308.46625,272.03 315.19625,273.43625 319.23,279.38625 C322.72875,284.54375 320.67125,292.29375 321.4975,299.35 C322.225,305.55875 326.85375,311.48875 331.02625,313.415 C330.9125,307.93 326.93875,306.30875 326.94375,300.71125 C327.57375,301.90375 332.1725,303.0375 335.10875,303.43125 C336.11375,302.04125 332.4675,297.67125 331.48375,295.265 C330.495,294.88625 329.92875,294.0925 328.30625,294.3575 C330.0575,275.3625 314.13375,274.04625 307.8875,263.05125 L305.61875,263.05125 C304.335,256.32 302.75,249.89 301.98875,242.63375 C308.62,231.87875 313.9175,248.79125 317.8675,253.07125 C323.20375,258.85125 327.3125,260.79375 331.93125,263.50625 C329.1875,272.48375 337.00375,277.85875 342.37,281.65375 C342.39,276.90625 337.6675,273.0775 335.5675,268.95 C335.5275,267.2525 337.52,267.5775 336.925,265.31875 C344.47625,268.2075 345.06125,278.055 347.81625,285.73625 C356.8725,273.23125 343.08375,264.5025 336.01875,258.51375 C329.36375,257.00375 324.48375,253.715 320.135,249.8925 C320.09125,246.61375 318.8075,244.57 319.23,240.81875 C316.2,237.80125 311.09875,236.8475 310.61125,231.29375 C308.0475,230.6775 306.6025,228.94875 304.25625,228.115 C295.50375,233.40375 289.07,232.01875 279.3,227.6625 C275.39875,225.92125 270.87875,221.0675 267.50375,221.30875 C264.2775,221.54 262.79625,224.86875 260.70125,225.395 C244.94,229.3375 242.08125,217.97875 233.4775,214.05125 C229.33625,212.16 225.5975,213.3075 221.68125,209.96875 C220.72125,209.01875 222.27625,208.26125 223.045,207.7 C219.13375,200.21 211.99625,205.49875 206.25,207.7 C200.6375,209.8525 185.72125,212.04625 178.12125,208.605 C175.71125,207.51375 175.51875,204.44875 171.77125,202.7075 C169.39,201.6025 166.59,202.17875 164.0575,201.8 C147.12,199.27625 139.81125,183.69875 130.93625,170.49375 C138.52625,161.37375 123.33125,159.53625 125.49125,150.53125 C136.745,147.05125 138.55625,157.1375 143.6425,162.3275 C148.13375,166.9125 153.82625,168.7375 155.43875,173.66875 C155.4425,175.64375 155.58625,177.7525 154.98125,179.115 C160.48125,180.4225 158.8575,188.85 161.33625,193.17875 C164.44625,191.905 162.37875,185.45 163.605,182.29 C162.035,180.07625 159.42375,178.91 159.06375,175.48375 C164.58875,176.6175 166.55625,181.30625 171.31875,183.1975 C171.72125,191.4125 172.8625,198.895 177.215,203.16 C177.265,199.175 175.0225,193.56 174.94875,188.1875 C179.8375,188.28875 181.56,191.5575 187.1975,190.91125 C184.1775,188.0325 180.75375,185.55875 175.40125,185.0125 C174.45625,176.3325 164.41125,176.525 159.97375,171.40125 C157.44125,168.47875 157.56875,165.20125 154.98125,161.8725 C143.86875,160.88875 144.1925,148.4625 137.29125,143.27125 C135.555,143.65125 133.64625,143.8625 131.3925,143.7225 C129.0275,137.9525 125.3825,131.02875 127.7625,122.85375 C128.4575,120.4475 131.4725,115.36125 134.11375,112.4175 C136.89875,109.31125 144.745,104.72875 147.72125,104.70625 C151.7975,104.67125 155.42375,109.61 159.06375,108.78625 C162.005,108.1225 163.29,100.65 170.4075,102.43625 C173.09,96.50125 166.62,92.48375 166.7825,87.00875 C166.8325,85.235 168.54875,83.89 169.05,82.01875 C170.7875,75.55 168.09625,67.06625 170.4075,59.78875 C180.52125,58.9175 188.875,56.57875 190.375,46.175 C192.19125,46.025 192.89375,46.9825 194.91625,46.62875 C196.99125,43.2625 200.13,40.96 201.71875,37.0975 C206.87875,33.99 213.3975,35.325 219.4075,34.83375 C224.87,34.385 229.45375,31.29375 236.65,32.565 C244.345,33.9175 247.7525,44.11375 256.6175,40.72875 C259.03375,39.80625 261.4875,37.65625 264.33125,35.285 C269.02,31.375 272.68,29.84375 276.58125,25.7575 C249.73,9.7725 216.3925,-1.06 174.0375,0.80125 C107.28375,3.73875 63.17375,37.5775 32.025,75.665 C35.88125,79.88625 40.9925,79.6 45.63625,82.01875 C49.645,84.105 53.98,92.73 58.795,93.815 C64.77125,95.1625 69.9725,92.29 73.77,94.72 C76.76,96.64125 76.88375,102.07 79.6675,103.79625 C80.82375,104.9075 84.40375,103.59375 85.565,104.70625 C85.35375,113.955 73.17375,119.44625 78.7575,128.75 C79.6725,130.27875 81.7975,131.3675 83.29875,132.83375 C83.78,133.30875 85.54625,133.7175 85.565,133.7425 C87.06625,135.6425 88.375,141.43375 90.55375,144.63375 C91.67125,146.26625 95.8225,149.0725 96,150.07625 C96.1375,150.85 94.3425,152.915 94.185,154.16 C93.3975,160.42875 98.73875,165.15625 98.2675,171.40125 C97.72625,178.6075 89.30375,179.22 89.195,187.735 C86.1175,189.82375 84.2775,189.65375 82.84,191.81875 C79.52,196.83375 82.4325,204.645 81.935,210.42 C81.45375,215.94 77.95,222.18 76.0375,224.94 C69.0175,235.04625 50.38875,228.61 36.565,229.93 C31.78875,230.3875 29.31375,237.7525 23.85875,239.45875 C20.61125,237.865 19.15625,234.48 15.6925,233.10625 C12.69125,236.00625 5.86875,235.08125 1.17125,236.28375 C0.58625,237.51375 0.06,238.8025 0.26625,240.81875 C4.63375,241.59125 8.59375,242.7775 13.87875,242.63375 C15.845,248.46375 15.245,253.01125 14.7825,259.87625 C14.1425,269.4125 7.79125,275.445 14.33,282.56125 C19.02875,276.97625 19.13625,266.7975 22.50125,259.87625 C22.19625,258.66375 22.31,257.04 21.59,256.24625 C26.525,251.61 27.24875,244.33625 32.48125,239.91125 C38.675,234.6725 48.69125,237.5425 59.70125,237.19125 C62.0225,238.955 61.9575,243.0975 66.50875,242.63375 C66.79875,255.48125 52.5575,253.78875 45.1825,258.96875 C42.645,268.67 45.675,279.305 41.10125,285.73625 C39.52125,287.9575 36.26,288.87 34.29625,290.73 C30.58375,294.235 29.30375,298.24875 26.57875,302.07375 C26.7425,304.33125 28.8175,304.67375 29.30375,306.61 C32.08875,303.88375 32.1525,299.93125 34.29625,297.08125 C36.79125,293.76 40.4325,292.6625 43.3675,289.8225 C46.95375,296.73625 51.70125,301.91875 50.62875,310.6925 C49.8275,317.23 45.44875,324.92125 51.08125,329.74875 C55.51875,328.08625 53.39875,320.8825 53.8025,317.045 C53.99875,315.19375 54.94375,313.515 55.165,311.6 C56.5025,299.96625 51.17125,289.505 48.36125,281.20125 C50.06375,277.2675 52.8575,275.59875 52.89625,271.2175 C52.93125,267.64875 50.04375,265.03375 53.35,262.14375 C58.825,261.41625 65.3425,261.73375 69.23375,259.42125 C73.53875,261.1625 74.90625,265.84625 80.12,266.6825 C82.36875,272.25375 87.96125,276.46375 87.38125,283.01375 C86.86875,288.705 81.645,290.04875 80.12,295.265 C76.71625,295.79375 72.76125,295.7725 68.77625,295.72 C67.995,301.14125 64.93875,306.7 64.24125,310.6925 C64.52125,311.3225 65.9875,310.76125 66.05625,311.6 C70.2275,308.815 68.97875,300.6075 74.67375,299.35 C73.9125,303.59375 71.54,308.7075 67.87125,313.415 C65.0425,317.0375 57.40375,321.25375 63.7875,326.57125 C65.01875,324.8225 63.18875,322.75125 64.69375,321.58125 C68.7125,323.7825 64.61875,329.555 65.59875,334.285 C69.27875,329.2325 67.95,323.32 69.68125,317.49875 C70.55125,314.57875 73.22375,312.08625 74.67375,308.8775 C76.145,305.61875 77.2475,302.66875 78.7575,299.80375 C83.9775,299.46875 86.56375,293.27375 88.73875,288.46 C102.47375,298.0025 85.42375,311.02375 79.21,317.95 C73.765,324.03375 74.065,330.4525 69.23375,336.1 C67.84125,336.8275 66.49875,337.60375 65.145,338.3675 C65.43625,340.195 64.55625,343.19375 65.59875,344.26625 C74.1525,342.3725 75.78125,329.65125 83.75125,325.66625 C90.86375,333.61125 75.52625,343.95875 83.29875,351.07125 C82.91875,344.44625 88.11875,341.595 89.195,336.1 C90.3375,330.27375 86.4325,326.13125 87.83375,320.67375 C88.58125,317.76125 92.09375,317.18125 94.6375,314.32 C98.2825,310.2275 98.80375,303.8325 101.445,299.35 C104.90375,299.52375 104.6325,303.41875 106.88625,304.79375 C105.04125,309.19 102.7875,316.6325 104.6225,320.67375 C102.63,325.8975 96.64,328.975 96.45125,334.74 C96.265,340.5425 101.43125,345.73625 101.445,352.435 C102.8125,348.85125 102.7925,344.9525 102.35,341.09125 C102.095,338.86 100.47625,336.48875 100.535,334.74 C100.7475,328.91 106.26625,326.78 109.61,322.94375 C108.0425,319.395 108.38125,312.77 110.97375,310.6925 C117.32875,319.68875 115.6425,338.375 114.14625,351.5275 C112.73,353.8875 111.185,356.12625 108.24875,356.9725 C108.505,361.8625 109.075,366.4325 110.97375,369.67625 C112.41,367.935 112.445,364.79625 112.33125,361.51 C116.07,356.775 119.23375,351.47 119.5925,343.36125 C127.61125,344.1925 139.02375,349.01 137.74375,357.425 C137.2525,360.63 134.08875,361.06 133.20875,364.68375 C134.66875,367.305 134.75875,371.2975 136.38125,373.75875 C138.4975,370.49375 135.78625,363.15875 141.37,364.23125 C146.485,365.215 142.1525,379.78375 150.445,378.75 C149.93875,372.3725 145.04875,367.3675 147.2675,361.055 C143.735,348.1 136.24375,339.10875 123.2225,335.6475 C118.7175,327.29625 120.63,312.52875 118.23,302.07375 C113.22625,300.4625 111.0525,295.64125 107.795,292.09 C102.11875,285.89375 93.865,281.455 91.91625,271.6725 C102.61125,271.75625 112.95125,278.41375 111.42625,290.73 C118.57375,296.035 124.585,302.295 124.585,312.96 C124.585,315.39 122.86375,318.62 123.2225,321.12875 C123.8425,325.435 128.96875,329.15625 131.3925,330.65625 C129.8725,327.33125 128.04375,324.3225 126.8525,320.67375 C127.56625,319.70125 128.78125,322.04125 130.48375,321.58125 C128.855,317.39875 125.85,309.2725 125.49125,303.43125 C125.43625,302.49 126.18875,300.6325 125.94375,299.80375 C124.61375,295.305 118.75125,295.165 118.23,290.73 C126.65625,293.11125 136.785,296.7925 137.29125,306.61 C137.375,308.34625 136.2975,310.205 136.38125,312.0525 C136.55875,316.07125 139.58875,319.85375 141.37,322.94375 C142.47625,320.01125 138.21125,315.26375 140.92125,312.0525 C145.82125,313.65375 145.25125,320.7275 149.9925,322.48875 C151.74875,328.1525 148.09,333.21 149.08375,338.3675 C149.7525,341.81375 154.2525,343.2775 152.26125,346.98875 C158.72875,353.1625 156.4325,365.57125 162.2425,371.94375 C163.285,369.68125 161.17375,366.67 161.33625,363.7775 C165.72,364.08375 166.2175,368.275 169.96,369.22125 C170.4425,367.97125 167.0625,362.95875 164.9675,361.055 C163.585,359.80375 161.43125,358.94 159.97375,358.3325 C158.715,350.67125 156.68375,343.77875 152.71875,338.8225 C153.43125,334.65375 155.16875,330.27375 154.07625,325.66625 C161.49375,326.41625 163.49625,336.51 167.235,342.4525 C167.4175,338.33375 165.47375,332.41875 164.9675,327.47875 C156.36875,322.63375 145.27625,314.97875 141.37,304.79375 C140.725,303.11125 141.09875,300.96 140.465,299.35 C138.98875,295.6025 135.4075,293.1625 135.01875,288.915 C131.7875,288.4325 130.28625,285.45625 127.30625,284.82875 C126.22375,284.6025 124.83125,285.2325 123.675,284.82875 C115.47,281.97875 112.3025,271.94875 107.34375,265.775 C94.54875,263.5975 82.0575,261.11625 81.935,246.265 C82.74125,244.65125 85.41375,244.9025 86.47125,243.54125 C90.0525,234.1 94.6275,233.05875 95.54625,221.30875 C95.86125,217.28125 104.3975,210.24375 109.15875,210.42 C112.89125,210.56125 120.26625,215.85375 124.1275,218.13375 C134.4575,224.22375 141.07875,229.1825 149.54125,237.64375 C152.33,240.4325 159.03875,247.24875 159.52125,249.8925 C160.0375,252.7625 157.805,256.10375 158.15875,258.96875 C159,265.75 168.8875,269.84 168.5925,277.57125 C168.49,280.375 166.7825,282.39625 165.8725,285.73625 C167.52625,289.9925 171.00875,292.2825 170.4075,297.08125 C169.88625,301.28125 163.4275,305.945 168.14125,310.6925 C168.5825,304.78375 171.30875,301.15875 174.94875,298.4425 C178.48,302.6225 177.585,311.23375 177.66875,318.8575 C181.0975,314.72375 182.54875,305.2325 180.39375,298.89625 C178.6675,293.81875 171.55375,290.415 170.86,285.73625 C174.3775,276.77625 183.7,284.9625 188.1075,289.3675 C191.02375,292.2875 195.01875,296.66 198.54125,300.25625 C201.47875,303.25875 207.2925,309.5575 207.16375,312.5075 C206.88875,318.62125 197.74375,318.97375 194.91625,323.84875 C199.15125,340.0425 181.77125,339.67375 181.75125,352.8875 C181.75125,354.16125 182.82875,356.2425 182.6575,357.88 C182.19,362.4625 173.12375,367.9 179.0325,374.2125 C181.0975,371.89 179.63625,366.04625 182.6575,364.68375 C189.05125,365.87625 185.835,375.56 184.47125,378.2975 C189.0275,378.83125 189.99625,372.68 189.465,369.22125 C188.93,365.71125 185.25375,362.475 185.835,356.065 C186.3025,350.9025 188.0825,347.8325 193.09625,345.17625 C194.41375,349.9525 190.2375,353.26125 191.28,357.425 C191.80625,359.535 196.98125,362.96125 198.99375,366.49875 C201.8425,371.50625 202.4475,376.85375 204.89125,379.6575 C205.26125,379.26625 206.13625,379.39 206.25,378.75" id="path130" fill="#000000"></path>
                                </g>
                                <g id="g132" stroke-width="1" fill="none" transform="translate(200.200250, 60.267375)">
                                    <polygon id="path134" fill="#231F20" points="86.25 128.75 86.25 0.41625 67.92 0.41625 67.92 100.66875 67.58 100.66875 48.5675 0.41625 38.385 0.41625 19.3775 100.66875 19.0375 100.66875 19.0375 0.41625 0.70875 0.41625 0.70875 128.75 28.37375 128.75 43.30875 53.74125 43.64875 53.74125 58.58375 128.75"></polygon>
                                </g>
                                <g id="g136" stroke-width="1" fill="none" transform="translate(198.469250, 58.537625)">
                                    <path d="M71.25,3.75 L86.3775,3.75 L86.3775,128.87875 L61.62875,128.87875 L46.6925,53.8675 L43.7225,53.8675 L28.78625,128.87875 L4.0425,128.87875 L4.0425,3.75 L19.165,3.75 L19.165,103.99875 L22.43625,103.99875 L41.445,3.75 L48.97625,3.75 L67.98375,103.99875 L71.25,103.99875 L71.25,3.75 L71.25,3.75 Z M89.585,0.54625 L68.0475,0.54625 L68.0475,87.14125 L51.6275,0.54625 L38.7875,0.54625 L22.36875,87.14125 L22.36875,0.54625 L0.83625,0.54625 L0.83625,132.08375 L31.41875,132.08375 L45.2125,62.82 L59.00125,132.08375 L89.585,132.08375 L89.585,0.54625 L89.585,0.54625 Z" id="path138" fill="#231F20"></path>
                                </g>
                                <g id="g140" stroke-width="1" fill="none" transform="translate(299.415250, 59.571500)">
                                    <path d="M27.5,48.75 L44.47625,48.75 L36.15875,103.84875 L35.81875,103.84875 L27.5,48.75 L27.5,48.75 Z M20.71125,1.1125 L0.345,1.1125 L22.92125,129.44625 L49.05625,129.44625 L71.63625,1.1125 L51.26625,1.1125 L47.53125,29.55125 L24.45125,29.55125 L20.71125,1.1125 L20.71125,1.1125 Z" id="path142" fill="#231F20"></path>
                                </g>
                                <g id="g144" stroke-width="1" fill="none" transform="translate(297.529250, 58.673125)">
                                    <path d="M31.25,51.25 L44.49875,51.25 L37.8725,95.13625 L31.25,51.25 L31.25,51.25 Z M48.2275,48.04625 L27.52625,48.04625 L36.32875,106.35 L39.42125,106.35 L48.2275,48.04625 L48.2275,48.04625 Z M54.5575,3.615 L71.60875,3.615 L49.6,128.7425 L26.15,128.7425 L4.14,3.615 L21.19625,3.615 L24.92875,32.05375 L50.825,32.05375 L54.5575,3.615 L54.5575,3.615 Z M75.42625,0.41 L51.745,0.41 L48.01,28.85 L27.7375,28.85 L24.005,0.41 L0.32375,0.41 L0.6575,2.28875 L23.45875,131.9475 L52.285,131.9475 L75.42625,0.41 L75.42625,0.41 Z" id="path146" fill="#231F20"></path>
                                </g>
                                <g id="g148" stroke-width="1" fill="none" transform="translate(384.270000, 60.063500)">
                                    <path d="M21.25,18.75 L28.55,18.75 C39.75625,18.75 43.6575,23.195 43.6575,36.705 L43.6575,92.87125 C43.6575,106.38125 39.75625,110.82375 28.55,110.82375 L21.25,110.82375 L21.25,18.75 L21.25,18.75 Z M0.205,128.95375 L31.4325,128.95375 C53.16125,128.95375 64.7025,116.5125 64.7025,90.205 L64.7025,39.36875 C64.7025,13.06375 53.16125,0.62 31.4325,0.62 L0.205,0.62 L0.205,128.95375 L0.205,128.95375 Z" id="path150" fill="#231F20"></path>
                                </g>
                                <g id="g152" stroke-width="1" fill="none" transform="translate(382.128875, 57.917500)">
                                    <path d="M25,22.5 L30.69125,22.5 C41.04125,22.5 44.19375,26.32 44.19375,38.85125 L44.19375,95.0175 C44.19375,107.54875 41.04125,111.36625 30.69125,111.36625 L25,111.36625 L25,22.5 L25,22.5 Z M30.69125,19.29625 L21.7925,19.29625 L21.7925,114.57125 L30.69125,114.57125 C42.87125,114.57125 47.3975,109.27125 47.3975,95.0175 L47.3975,38.85125 C47.3975,24.59625 42.87125,19.29625 30.69125,19.29625 L30.69125,19.29625 Z M3.95,4.37 L33.57375,4.37 C54.88375,4.37 65.24375,16.52125 65.24375,41.515 L65.24375,92.35125 C65.24375,117.3475 54.88375,129.49875 33.57375,129.49875 L3.95,129.49875 L3.95,4.37 L3.95,4.37 Z M33.57375,1.16625 L0.74875,1.16625 L0.74875,132.70375 L33.57375,132.70375 C56.71375,132.70375 68.4475,119.12625 68.4475,92.35125 L68.4475,41.515 C68.4475,14.74 56.71375,1.16625 33.57375,1.16625 L33.57375,1.16625 Z" id="path154" fill="#231F20"></path>
                                </g>
                                <g id="g156" stroke-width="1" fill="none" transform="translate(458.664500, 59.820000)">
                                    <polygon id="path158" fill="#231F20" points="21.25 110 0.88375 110 0.88375 129.1975 62.66 129.1975 62.66 110 42.29375 110 42.29375 0.86375 21.25 0.86375"></polygon>
                                </g>
                                <g id="g160" stroke-width="1" fill="none" transform="translate(457.768500, 58.537625)">
                                    <path d="M23.75,3.75 L41.5875,3.75 L41.5875,112.88625 L61.95625,112.88625 L61.95625,128.87875 L3.37875,128.87875 L3.37875,112.88625 L23.75,112.88625 L23.75,3.75 L23.75,3.75 Z M44.79375,0.54625 L20.5425,0.54625 L20.5425,109.68125 L0.17625,109.68125 L0.17625,132.08375 L65.16,132.08375 L65.16,109.68125 L44.79375,109.68125 L44.79375,0.54625 L44.79375,0.54625 Z" id="path162" fill="#231F20"></path>
                                </g>
                                <g id="g164" stroke-width="1" fill="none" transform="translate(533.618125, 60.177000)">
                                    <path d="M21.25,71.25 L28.71875,71.25 C40.09125,71.25 44.33625,75.695 44.33625,90.97875 C44.33625,106.26875 40.09125,110.71 28.71875,110.71 L21.25,110.71 L21.25,71.25 L21.25,71.25 Z M21.25,0.50625 L0.20625,0.50625 L0.20625,128.84 L29.74125,128.84 C53.33375,128.84 65.38125,118.3525 65.38125,90.97875 C65.38125,70.3625 57.74625,62.00625 50.61375,58.63 L68.43625,0.50625 L47.0525,0.50625 L32.11125,53.655 C29.3975,53.29875 24.98375,53.12 21.25,53.12 L21.25,0.50625 L21.25,0.50625 Z" id="path166" fill="#231F20"></path>
                                </g>
                                <g id="g168" stroke-width="1" fill="none" transform="translate(531.472125, 58.031000)">
                                    <path d="M25,75 L30.86375,75 C40.35875,75 44.87875,77.71125 44.87875,93.125 C44.87875,108.54125 40.35875,111.2525 30.86375,111.2525 L25,111.2525 L25,75 L25,75 Z M30.86375,71.79625 L21.7975,71.79625 L21.7975,114.4575 L30.86375,114.4575 C43.58,114.4575 48.08125,108.87625 48.08125,93.125 C48.08125,77.375 43.58,71.79625 30.86375,71.79625 L30.86375,71.79625 Z M50.4075,4.25625 L68.4125,4.25625 L50.82125,61.6325 L52.075,62.225 C61.1325,66.515 65.9275,77.2025 65.9275,93.125 C65.9275,118.54125 55.74625,129.385 31.8875,129.385 L3.95,129.385 L3.95,4.25625 L21.7975,4.25625 L21.7975,56.87 L23.39625,56.87 C27.465,56.87 31.645,57.07125 34.05125,57.38875 L35.425,57.56875 L50.4075,4.25625 L50.4075,4.25625 Z M72.74625,1.0525 L47.98375,1.0525 L33.0875,54.05875 C30.90875,53.8525 27.97625,53.7125 25,53.675 L25,1.0525 L0.75375,1.0525 L0.75375,132.59 L31.8875,132.59 C44.53,132.59 53.625,129.59875 59.69125,123.4475 C66.04125,117.01 69.13125,107.09375 69.13125,93.125 C69.13125,72.5775 61.545,63.7475 54.6875,59.965 L72.74625,1.0525 L72.74625,1.0525 Z" id="path170" fill="#231F20"></path>
                                </g>
                                <g id="g172" stroke-width="1" fill="none" transform="translate(615.114750, 60.683625)">
                                    <polygon id="path174" fill="#231F20" points="0 0 0 128.33375 56.35 128.33375 56.35 109.13625 21.045 109.13625 21.045 76.07625 48.19875 76.07625 48.19875 56.88125 21.045 56.88125 21.045 19.1975 58.72125 19.1975 58.72125 0"></polygon>
                                </g>
                                <g id="g176" stroke-width="1" fill="none" transform="translate(612.968750, 58.537625)">
                                    <path d="M3.75,3.75 L59.2675,3.75 L59.2675,19.7425 L21.5875,19.7425 L21.5875,60.62875 L48.74625,60.62875 L48.74625,76.61875 L21.5875,76.61875 L21.5875,112.88625 L56.8925,112.88625 L56.8925,128.87875 L3.75,128.87875 L3.75,3.75 L3.75,3.75 Z M62.47125,0.54625 L0.5425,0.54625 L0.5425,132.08375 L60.095,132.08375 L60.095,109.68125 L24.795,109.68125 L24.795,79.825 L51.94875,79.825 L51.94875,57.42375 L24.795,57.42375 L24.795,22.94375 L62.47125,22.94375 L62.47125,0.54625 L62.47125,0.54625 Z" id="path178" fill="#231F20"></path>
                                </g>
                                <g id="g180" stroke-width="1" fill="none" transform="translate(686.749250, 60.683625)">
                                    <polygon id="path182" fill="#231F20" points="0 0 0 128.33375 56.34875 128.33375 56.34875 109.13625 21.04875 109.13625 21.04875 76.07625 48.20375 76.07625 48.20375 56.88125 21.04875 56.88125 21.04875 19.1975 58.73 19.1975 58.73 0"></polygon>
                                </g>
                                <g id="g184" stroke-width="1" fill="none" transform="translate(684.606875, 58.537625)">
                                    <path d="M3.75,3.75 L59.26875,3.75 L59.26875,19.7425 L21.58875,19.7425 L21.58875,60.62875 L48.7475,60.62875 L48.7475,76.61875 L21.58875,76.61875 L21.58875,112.88625 L56.89375,112.88625 L56.89375,128.87875 L3.75,128.87875 L3.75,3.75 L3.75,3.75 Z M62.4725,0.54625 L0.54375,0.54625 L0.54375,132.08375 L60.095,132.08375 L60.095,109.68125 L24.795,109.68125 L24.795,79.825 L51.95,79.825 L51.95,57.42375 L24.795,57.42375 L24.795,22.94375 L62.4725,22.94375 L62.4725,0.54625 L62.4725,0.54625 Z" id="path186" fill="#231F20"></path>
                                </g>
                                <g id="g188" stroke-width="1" fill="none" transform="translate(200.200250, 60.267375)">
                                    <polygon id="path190" fill="#000000" points="86.25 128.75 86.25 0.41625 67.92 0.41625 67.92 100.66875 67.58 100.66875 48.5675 0.41625 38.385 0.41625 19.3775 100.66875 19.0375 100.66875 19.0375 0.41625 0.70875 0.41625 0.70875 128.75 28.37375 128.75 43.30875 53.74125 43.64875 53.74125 58.58375 128.75"></polygon>
                                </g>
                                <g id="g192" stroke-width="1" fill="none" transform="translate(198.469250, 58.537625)">
                                    <path d="M71.25,3.75 L86.3775,3.75 L86.3775,128.87875 L61.62875,128.87875 L46.6925,53.8675 L43.7225,53.8675 L28.78625,128.87875 L4.0425,128.87875 L4.0425,3.75 L19.165,3.75 L19.165,103.99875 L22.43625,103.99875 L41.445,3.75 L48.97625,3.75 L67.98375,103.99875 L71.25,103.99875 L71.25,3.75 L71.25,3.75 Z M89.585,0.54625 L68.0475,0.54625 L68.0475,87.14125 L51.6275,0.54625 L38.7875,0.54625 L22.36875,87.14125 L22.36875,0.54625 L0.83625,0.54625 L0.83625,132.08375 L31.41875,132.08375 L45.2125,62.82 L59.00125,132.08375 L89.585,132.08375 L89.585,0.54625 L89.585,0.54625 Z" id="path194" fill="#000000"></path>
                                </g>
                                <g id="g196" stroke-width="1" fill="none" transform="translate(299.415250, 59.571500)">
                                    <path d="M27.5,48.75 L44.47625,48.75 L36.15875,103.84875 L35.81875,103.84875 L27.5,48.75 L27.5,48.75 Z M20.71125,1.1125 L0.345,1.1125 L22.92125,129.44625 L49.05625,129.44625 L71.63625,1.1125 L51.26625,1.1125 L47.53125,29.55125 L24.45125,29.55125 L20.71125,1.1125 L20.71125,1.1125 Z" id="path198" fill="#000000"></path>
                                </g>
                                <g id="g200" stroke-width="1" fill="none" transform="translate(297.529250, 58.673125)">
                                    <path d="M31.25,51.25 L44.49875,51.25 L37.8725,95.13625 L31.25,51.25 L31.25,51.25 Z M48.2275,48.04625 L27.52625,48.04625 L36.32875,106.35 L39.42125,106.35 L48.2275,48.04625 L48.2275,48.04625 Z M54.5575,3.615 L71.60875,3.615 L49.6,128.7425 L26.15,128.7425 L4.14,3.615 L21.19625,3.615 L24.92875,32.05375 L50.825,32.05375 L54.5575,3.615 L54.5575,3.615 Z M75.42625,0.41 L51.745,0.41 L48.01,28.85 L27.7375,28.85 L24.005,0.41 L0.32375,0.41 L0.6575,2.28875 L23.45875,131.9475 L52.285,131.9475 L75.42625,0.41 L75.42625,0.41 Z" id="path202" fill="#000000"></path>
                                </g>
                                <g id="g204" stroke-width="1" fill="none" transform="translate(384.270000, 60.063500)">
                                    <path d="M21.25,18.75 L28.55,18.75 C39.75625,18.75 43.6575,23.195 43.6575,36.705 L43.6575,92.87125 C43.6575,106.38125 39.75625,110.82375 28.55,110.82375 L21.25,110.82375 L21.25,18.75 L21.25,18.75 Z M0.205,128.95375 L31.4325,128.95375 C53.16125,128.95375 64.7025,116.5125 64.7025,90.205 L64.7025,39.36875 C64.7025,13.06375 53.16125,0.62 31.4325,0.62 L0.205,0.62 L0.205,128.95375 L0.205,128.95375 Z" id="path206" fill="#000000"></path>
                                </g>
                                <g id="g208" stroke-width="1" fill="none" transform="translate(382.128875, 57.917500)">
                                    <path d="M25,22.5 L30.69125,22.5 C41.04125,22.5 44.19375,26.32 44.19375,38.85125 L44.19375,95.0175 C44.19375,107.54875 41.04125,111.36625 30.69125,111.36625 L25,111.36625 L25,22.5 L25,22.5 Z M30.69125,19.29625 L21.7925,19.29625 L21.7925,114.57125 L30.69125,114.57125 C42.87125,114.57125 47.3975,109.27125 47.3975,95.0175 L47.3975,38.85125 C47.3975,24.59625 42.87125,19.29625 30.69125,19.29625 L30.69125,19.29625 Z M3.95,4.37 L33.57375,4.37 C54.88375,4.37 65.24375,16.52125 65.24375,41.515 L65.24375,92.35125 C65.24375,117.3475 54.88375,129.49875 33.57375,129.49875 L3.95,129.49875 L3.95,4.37 L3.95,4.37 Z M33.57375,1.16625 L0.74875,1.16625 L0.74875,132.70375 L33.57375,132.70375 C56.71375,132.70375 68.4475,119.12625 68.4475,92.35125 L68.4475,41.515 C68.4475,14.74 56.71375,1.16625 33.57375,1.16625 L33.57375,1.16625 Z" id="path210" fill="#000000"></path>
                                </g>
                                <g id="g212" stroke-width="1" fill="none" transform="translate(458.664500, 59.820000)">
                                    <polygon id="path214" fill="#000000" points="21.25 110 0.88375 110 0.88375 129.1975 62.66 129.1975 62.66 110 42.29375 110 42.29375 0.86375 21.25 0.86375"></polygon>
                                </g>
                                <g id="g216" stroke-width="1" fill="none" transform="translate(457.768500, 58.537625)">
                                    <path d="M23.75,3.75 L41.5875,3.75 L41.5875,112.88625 L61.95625,112.88625 L61.95625,128.87875 L3.37875,128.87875 L3.37875,112.88625 L23.75,112.88625 L23.75,3.75 L23.75,3.75 Z M44.79375,0.54625 L20.5425,0.54625 L20.5425,109.68125 L0.17625,109.68125 L0.17625,132.08375 L65.16,132.08375 L65.16,109.68125 L44.79375,109.68125 L44.79375,0.54625 L44.79375,0.54625 Z" id="path218" fill="#000000"></path>
                                </g>
                                <g id="g220" stroke-width="1" fill="none" transform="translate(533.618125, 60.177000)">
                                    <path d="M21.25,71.25 L28.71875,71.25 C40.09125,71.25 44.33625,75.695 44.33625,90.97875 C44.33625,106.26875 40.09125,110.71 28.71875,110.71 L21.25,110.71 L21.25,71.25 L21.25,71.25 Z M21.25,0.50625 L0.20625,0.50625 L0.20625,128.84 L29.74125,128.84 C53.33375,128.84 65.38125,118.3525 65.38125,90.97875 C65.38125,70.3625 57.74625,62.00625 50.61375,58.63 L68.43625,0.50625 L47.0525,0.50625 L32.11125,53.655 C29.3975,53.29875 24.98375,53.12 21.25,53.12 L21.25,0.50625 L21.25,0.50625 Z" id="path222" fill="#000000"></path>
                                </g>
                                <g id="g224" stroke-width="1" fill="none" transform="translate(531.472125, 58.031000)">
                                    <path d="M25,75 L30.86375,75 C40.35875,75 44.87875,77.71125 44.87875,93.125 C44.87875,108.54125 40.35875,111.2525 30.86375,111.2525 L25,111.2525 L25,75 L25,75 Z M30.86375,71.79625 L21.7975,71.79625 L21.7975,114.4575 L30.86375,114.4575 C43.58,114.4575 48.08125,108.87625 48.08125,93.125 C48.08125,77.375 43.58,71.79625 30.86375,71.79625 L30.86375,71.79625 Z M50.4075,4.25625 L68.4125,4.25625 L50.82125,61.6325 L52.075,62.225 C61.1325,66.515 65.9275,77.2025 65.9275,93.125 C65.9275,118.54125 55.74625,129.385 31.8875,129.385 L3.95,129.385 L3.95,4.25625 L21.7975,4.25625 L21.7975,56.87 L23.39625,56.87 C27.465,56.87 31.645,57.07125 34.05125,57.38875 L35.425,57.56875 L50.4075,4.25625 L50.4075,4.25625 Z M72.74625,1.0525 L47.98375,1.0525 L33.0875,54.05875 C30.90875,53.8525 27.97625,53.7125 25,53.675 L25,1.0525 L0.75375,1.0525 L0.75375,132.59 L31.8875,132.59 C44.53,132.59 53.625,129.59875 59.69125,123.4475 C66.04125,117.01 69.13125,107.09375 69.13125,93.125 C69.13125,72.5775 61.545,63.7475 54.6875,59.965 L72.74625,1.0525 L72.74625,1.0525 Z" id="path226" fill="#000000"></path>
                                </g>
                                <g id="g228" stroke-width="1" fill="none" transform="translate(615.114750, 60.683625)">
                                    <polygon id="path230" fill="#000000" points="0 0 0 128.33375 56.35 128.33375 56.35 109.13625 21.045 109.13625 21.045 76.07625 48.19875 76.07625 48.19875 56.88125 21.045 56.88125 21.045 19.1975 58.72125 19.1975 58.72125 0"></polygon>
                                </g>
                                <g id="g232" stroke-width="1" fill="none" transform="translate(612.968750, 58.537625)">
                                    <path d="M3.75,3.75 L59.2675,3.75 L59.2675,19.7425 L21.5875,19.7425 L21.5875,60.62875 L48.74625,60.62875 L48.74625,76.61875 L21.5875,76.61875 L21.5875,112.88625 L56.8925,112.88625 L56.8925,128.87875 L3.75,128.87875 L3.75,3.75 L3.75,3.75 Z M62.47125,0.54625 L0.5425,0.54625 L0.5425,132.08375 L60.095,132.08375 L60.095,109.68125 L24.795,109.68125 L24.795,79.825 L51.94875,79.825 L51.94875,57.42375 L24.795,57.42375 L24.795,22.94375 L62.47125,22.94375 L62.47125,0.54625 L62.47125,0.54625 Z" id="path234" fill="#000000"></path>
                                </g>
                                <g id="g236" stroke-width="1" fill="none" transform="translate(686.749250, 60.683625)">
                                    <polygon id="path238" fill="#000000" points="0 0 0 128.33375 56.34875 128.33375 56.34875 109.13625 21.04875 109.13625 21.04875 76.07625 48.20375 76.07625 48.20375 56.88125 21.04875 56.88125 21.04875 19.1975 58.73 19.1975 58.73 0"></polygon>
                                </g>
                                <g id="g240" stroke-width="1" fill="none" transform="translate(684.606875, 58.537625)">
                                    <path d="M3.75,3.75 L59.26875,3.75 L59.26875,19.7425 L21.58875,19.7425 L21.58875,60.62875 L48.7475,60.62875 L48.7475,76.61875 L21.58875,76.61875 L21.58875,112.88625 L56.89375,112.88625 L56.89375,128.87875 L3.75,128.87875 L3.75,3.75 L3.75,3.75 Z M62.4725,0.54625 L0.54375,0.54625 L0.54375,132.08375 L60.095,132.08375 L60.095,109.68125 L24.795,109.68125 L24.795,79.825 L51.95,79.825 L51.95,57.42375 L24.795,57.42375 L24.795,22.94375 L62.4725,22.94375 L62.4725,0.54625 L62.4725,0.54625 Z" id="path242" fill="#000000"></path>
                                </g>
                            </g>
                        </g>
                    </g>
                </g>
            </g>
        </g>
    </g>
</svg>